<svg xmlns="http://www.w3.org/2000/svg" viewBox="0 0 440 160" width="440" height="160">
  <defs>
    <linearGradient id="blue" x1="0%" y1="0%" x2="100%" y2="100%">
      <stop offset="0%" style="stop-color:#60a5fa"/>
      <stop offset="100%" style="stop-color:#3b82f6"/>
    </linearGradient>
  </defs>

  <g fill="url(#blue)">
    <!-- G -->
    <rect x="10" y="20" width="20" height="20" rx="2"/>
    <rect x="30" y="20" width="20" height="20" rx="2"/>
    <rect x="50" y="20" width="20" height="20" rx="2"/>
    <rect x="70" y="20" width="20" height="20" rx="2"/>
    <rect x="90" y="20" width="20" height="20" rx="2"/>
    <rect x="10" y="40" width="20" height="20" rx="2"/>
    <rect x="30" y="40" width="20" height="20" rx="2"/>
    <rect x="10" y="60" width="20" height="20" rx="2"/>
    <rect x="90" y="60" width="20" height="20" rx="2"/>
    <rect x="10" y="80" width="20" height="20" rx="2"/>
    <rect x="50" y="80" width="20" height="20" rx="2"/>
    <rect x="70" y="80" width="20" height="20" rx="2"/>
    <rect x="90" y="80" width="20" height="20" rx="2"/>
    <rect x="10" y="100" width="20" height="20" rx="2"/>
    <rect x="30" y="100" width="20" height="20" rx="2"/>
    <rect x="90" y="100" width="20" height="20" rx="2"/>
    <rect x="10" y="120" width="20" height="20" rx="2"/>
    <rect x="30" y="120" width="20" height="20" rx="2"/>
    <rect x="50" y="120" width="20" height="20" rx="2"/>
    <rect x="70" y="120" width="20" height="20" rx="2"/>
    <rect x="90" y="120" width="20" height="20" rx="2"/>

    <!-- V -->
    <rect x="140" y="20" width="20" height="20" rx="2"/>
    <rect x="160" y="20" width="20" height="20" rx="2"/>
    <rect x="240" y="20" width="20" height="20" rx="2"/>
    <rect x="260" y="20" width="20" height="20" rx="2"/>
    <rect x="140" y="40" width="20" height="20" rx="2"/>
    <rect x="160" y="40" width="20" height="20" rx="2"/>
    <rect x="240" y="40" width="20" height="20" rx="2"/>
    <rect x="260" y="40" width="20" height="20" rx="2"/>
    <rect x="160" y="60" width="20" height="20" rx="2"/>
    <rect x="180" y="60" width="20" height="20" rx="2"/>
    <rect x="220" y="60" width="20" height="20" rx="2"/>
    <rect x="240" y="60" width="20" height="20" rx="2"/>
    <rect x="160" y="80" width="20" height="20" rx="2"/>
    <rect x="180" y="80" width="20" height="20" rx="2"/>
    <rect x="220" y="80" width="20" height="20" rx="2"/>
    <rect x="240" y="80" width="20" height="20" rx="2"/>
    <rect x="180" y="100" width="20" height="20" rx="2"/>
    <rect x="200" y="100" width="20" height="20" rx="2"/>
    <rect x="220" y="100" width="20" height="20" rx="2"/>
    <rect x="190" y="120" width="20" height="20" rx="2"/>
    <rect x="210" y="120" width="20" height="20" rx="2"/>

    <!-- B -->
    <rect x="310" y="20" width="20" height="20" rx="2"/>
    <rect x="330" y="20" width="20" height="20" rx="2"/>
    <rect x="350" y="20" width="20" height="20" rx="2"/>
    <rect x="370" y="20" width="20" height="20" rx="2"/>
    <rect x="310" y="40" width="20" height="20" rx="2"/>
    <rect x="390" y="40" width="20" height="20" rx="2"/>
    <rect x="310" y="60" width="20" height="20" rx="2"/>
    <rect x="330" y="60" width="20" height="20" rx="2"/>
    <rect x="350" y="60" width="20" height="20" rx="2"/>
    <rect x="370" y="60" width="20" height="20" rx="2"/>
    <rect x="310" y="80" width="20" height="20" rx="2"/>
    <rect x="390" y="80" width="20" height="20" rx="2"/>
    <rect x="310" y="100" width="20" height="20" rx="2"/>
    <rect x="390" y="100" width="20" height="20" rx="2"/>
    <rect x="310" y="120" width="20" height="20" rx="2"/>
    <rect x="330" y="120" width="20" height="20" rx="2"/>
    <rect x="350" y="120" width="20" height="20" rx="2"/>
    <rect x="370" y="120" width="20" height="20" rx="2"/>
  </g>
</svg>